<?xml version="1.0" encoding="UTF-8"?>
<svg id="Layer_1" xmlns="http://www.w3.org/2000/svg" version="1.1" viewBox="0 0 381.52 90.39">
  <!-- Generator: Adobe Illustrator 30.4.0, SVG Export Plug-In . SVG Version: 2.1.4 Build 226)  -->
  <defs>
    <style>
      .st0 {
        fill: #e93735;
      }
    </style>
  </defs>
  <path class="st0" d="M281.14,19.94h-5.32l-15.12,51.34h35.59l-15.14-51.34ZM271.05,63.94l.2-.74,1.78-6.6,5.44-19.96,5.44,19.96,1.75,6.58.21.76h-14.82Z"/>
  <g>
    <path class="st0" d="M34.17,26.55v.02c.13,0,.25-.04.38-.04,2.24,0,4.13.71,5.7,2.14,1.57,1.43,2.35,3.16,2.35,5.19v3.66h7.39c-.04-4.12-.42-10.04-4.04-13.32-3.15-2.87-6.95-4.29-11.42-4.29s-8.27,1.43-11.42,4.29c-.81.74-1.5,1.51-2.11,2.32h13.16v.02h0Z"/>
    <path class="st0" d="M42.62,55.09v2.26c0,2.03-.78,3.76-2.35,5.19-1.57,1.43-3.48,2.14-5.7,2.14s-4.13-.71-5.7-2.14c-1.57-1.43-2.35-3.16-2.35-5.19v-15.25h-8.07v14.51c0,4.06,1.57,7.52,4.72,10.38,3.15,2.87,6.95,4.29,11.42,4.29s8.27-1.43,11.42-4.29c3.14-2.85,4.04-5.15,4.04-11.91h-7.42Z"/>
  </g>
  <path class="st0" d="M242.91,48.21c2.58-.61,4.89-1.62,6.93-3.4,3.15-2.74,4.72-6.14,4.72-10.19s-1.57-7.52-4.72-10.38c-3.15-2.87-6.95-4.29-11.42-4.29h-16.14v6.6h16.14c2.24,0,4.13.71,5.7,2.14s2.35,3.4,2.35,5.92c0,2.27-.78,4.13-2.35,5.55-1.57,1.43-3.48,1.95-5.7,1.95h-8.07v-.04h-8.07v29.2h8.07v-22.56h3.86l11.84,22.56h8.96l-12.1-23.06Z"/>
  <g>
    <path class="st0" d="M93.35,49.53v-7.4h28.18v7.4h-28.18Z"/>
    <path class="st0" d="M93.35,27.31v-7.4h28.18v7.4h-28.18Z"/>
    <path class="st0" d="M93.35,71.29v-7.4h28.18v7.4h-28.18Z"/>
  </g>
  <g>
    <polygon class="st0" points="79.67 19.94 79.67 42.11 63.54 42.11 63.54 42.09 55.46 42.09 55.46 71.28 63.54 71.28 63.54 49.44 79.67 49.44 79.67 71.28 87.74 71.28 87.74 19.94 79.67 19.94"/>
    <rect class="st0" x="55.46" y="19.94" width="8.07" height="6.61"/>
  </g>
  <g>
    <path class="st0" d="M143.09,26.55v.02c.13,0,.25-.04.38-.04,2.24,0,4.13.71,5.7,2.14,1.57,1.43,2.35,3.16,2.35,5.19v3.66h7.39c-.04-4.12-.42-10.04-4.04-13.32-3.15-2.87-6.95-4.29-11.42-4.29s-8.27,1.43-11.42,4.29c-.81.74-1.5,1.51-2.11,2.32h13.16v.02Z"/>
    <path class="st0" d="M151.54,55.09v2.26c0,2.03-.78,3.76-2.35,5.19-1.57,1.43-3.48,2.14-5.7,2.14s-4.13-.71-5.7-2.14c-1.57-1.43-2.35-3.16-2.35-5.19v-15.25h-8.07v14.51c0,4.06,1.57,7.52,4.72,10.38,3.15,2.87,6.95,4.29,11.42,4.29s8.27-1.43,11.42-4.29c3.14-2.85,4.04-5.15,4.04-11.91h-7.42Z"/>
  </g>
  <g>
    <path class="st0" d="M313.86,26.55v.02c.13,0,.25-.04.38-.04,2.24,0,4.13.71,5.7,2.14s2.35,3.16,2.35,5.19v3.66h7.39c-.04-4.12-.42-10.04-4.04-13.32-3.15-2.87-6.95-4.29-11.42-4.29s-8.27,1.43-11.42,4.29c-.81.74-1.5,1.51-2.11,2.32h13.16v.02Z"/>
    <path class="st0" d="M322.31,55.09v2.26c0,2.03-.78,3.76-2.35,5.19-1.57,1.43-3.48,2.14-5.7,2.14s-4.13-.71-5.7-2.14c-1.57-1.43-2.35-3.16-2.35-5.19v-15.25h-8.07v14.51c0,4.06,1.57,7.52,4.72,10.38,3.15,2.87,6.95,4.29,11.42,4.29s8.27-1.43,11.42-4.29c3.14-2.85,4.04-5.15,4.04-11.91h-7.42Z"/>
  </g>
  <g>
    <path class="st0" d="M335.09,49.53v-7.4h28.18v7.4h-28.18Z"/>
    <path class="st0" d="M335.09,27.31v-7.4h28.18v7.4h-28.18Z"/>
    <path class="st0" d="M335.09,71.29v-7.4h28.18v7.4h-28.18Z"/>
  </g>
  <g>
    <polygon class="st0" points="183.71 56.52 198.7 71.51 216.56 71.51 192.59 47.54 183.71 56.52"/>
    <path class="st0" d="M164.79,72.75V19.02l17.15,17.15,16.55-16.55h19.44l-53.13,53.13Z"/>
  </g>
</svg>