<?xml version="1.0" encoding="UTF-8"?>
<svg id="Layer_1" xmlns="http://www.w3.org/2000/svg" version="1.1" viewBox="0 0 354.21 82.76">
  <!-- Generator: Adobe Illustrator 29.5.1, SVG Export Plug-In . SVG Version: 2.1.0 Build 141)  -->
  <defs>
    <style>
      .st0 {
        fill: #e93735;
      }
    </style>
  </defs>
  <path class="st0" d="M258.36,17.93h-4.83l-13.73,46.61h32.3l-13.74-46.61ZM249.2,57.87l.18-.67,1.62-5.99,4.94-18.12,4.94,18.12,1.59,5.97.19.69h-13.46Z"/>
  <g>
    <path class="st0" d="M34.17,23.93v.02c.12,0,.23-.03.34-.03,2.03,0,3.75.65,5.18,1.94,1.43,1.3,2.14,2.87,2.14,4.71v3.33h6.71c-.04-3.74-.38-9.11-3.67-12.09-2.86-2.6-6.31-3.9-10.37-3.9s-7.51,1.3-10.37,3.9c-.74.67-1.37,1.37-1.91,2.11h11.95v.02h0Z"/>
    <path class="st0" d="M41.84,49.84v2.05c0,1.85-.71,3.41-2.14,4.71-1.43,1.3-3.16,1.94-5.18,1.94s-3.75-.65-5.18-1.94c-1.43-1.3-2.14-2.87-2.14-4.71v-13.84h-7.33v13.17c0,3.68,1.43,6.82,4.29,9.42,2.86,2.6,6.31,3.9,10.37,3.9s7.51-1.3,10.37-3.9c2.85-2.59,3.67-4.67,3.67-10.81h-6.73Z"/>
  </g>
  <path class="st0" d="M223.66,43.59c2.34-.55,4.44-1.47,6.29-3.09,2.86-2.48,4.29-5.57,4.29-9.25s-1.43-6.82-4.29-9.42c-2.86-2.6-6.31-3.9-10.37-3.9h-14.65v5.99h14.65c2.03,0,3.75.65,5.18,1.94s2.14,3.09,2.14,5.38c0,2.06-.71,3.75-2.14,5.04-1.43,1.3-3.16,1.77-5.18,1.77h-7.33v-.03h-7.33v26.5h7.33v-20.48h3.5l10.75,20.48h8.13l-10.99-20.93Z"/>
  <g>
    <path class="st0" d="M87.89,44.79v-6.72h25.58v6.72h-25.58Z"/>
    <path class="st0" d="M87.89,24.62v-6.72h25.58v6.72h-25.58Z"/>
    <path class="st0" d="M87.89,64.54v-6.72h25.58v6.72h-25.58Z"/>
  </g>
  <g>
    <polygon class="st0" points="75.47 17.93 75.47 38.05 60.83 38.05 60.83 38.04 53.5 38.04 53.5 64.53 60.83 64.53 60.83 44.71 75.47 44.71 75.47 64.53 82.8 64.53 82.8 17.93 75.47 17.93"/>
    <rect class="st0" x="53.5" y="17.93" width="7.33" height="6"/>
  </g>
  <g>
    <path class="st0" d="M133.04,23.93v.02c.12,0,.23-.03.34-.03,2.03,0,3.75.65,5.18,1.94,1.43,1.3,2.14,2.87,2.14,4.71v3.33h6.71c-.04-3.74-.38-9.11-3.67-12.09-2.86-2.6-6.31-3.9-10.37-3.9s-7.51,1.3-10.37,3.9c-.74.67-1.37,1.37-1.91,2.11h11.95v.02Z"/>
    <path class="st0" d="M140.71,49.84v2.05c0,1.85-.71,3.41-2.14,4.71-1.43,1.3-3.16,1.94-5.18,1.94s-3.75-.65-5.18-1.94c-1.43-1.3-2.14-2.87-2.14-4.71v-13.84h-7.33v13.17c0,3.68,1.43,6.82,4.29,9.42,2.86,2.6,6.31,3.9,10.37,3.9s7.51-1.3,10.37-3.9c2.85-2.59,3.67-4.67,3.67-10.81h-6.73Z"/>
  </g>
  <g>
    <path class="st0" d="M288.06,23.93v.02c.12,0,.23-.03.34-.03,2.03,0,3.75.65,5.18,1.94s2.14,2.87,2.14,4.71v3.33h6.71c-.04-3.74-.38-9.11-3.67-12.09-2.86-2.6-6.31-3.9-10.37-3.9s-7.51,1.3-10.37,3.9c-.74.67-1.37,1.37-1.91,2.11h11.95v.02Z"/>
    <path class="st0" d="M295.73,49.84v2.05c0,1.85-.71,3.41-2.14,4.71-1.43,1.3-3.16,1.94-5.18,1.94s-3.75-.65-5.18-1.94c-1.43-1.3-2.14-2.87-2.14-4.71v-13.84h-7.33v13.17c0,3.68,1.43,6.82,4.29,9.42,2.86,2.6,6.31,3.9,10.37,3.9s7.51-1.3,10.37-3.9c2.85-2.59,3.67-4.67,3.67-10.81h-6.73Z"/>
  </g>
  <g>
    <path class="st0" d="M307.33,44.79v-6.72h25.58v6.72h-25.58Z"/>
    <path class="st0" d="M307.33,24.62v-6.72h25.58v6.72h-25.58Z"/>
    <path class="st0" d="M307.33,64.54v-6.72h25.58v6.72h-25.58Z"/>
  </g>
  <g>
    <polygon class="st0" points="169.92 51.13 183.53 64.74 199.73 64.74 177.98 42.98 169.92 51.13"/>
    <path class="st0" d="M152.74,65.87V17.09l15.57,15.57,15.02-15.02h17.64l-48.23,48.23Z"/>
  </g>
</svg>